<svg width="45" height="45" viewBox="0 0 45 45" fill="none" xmlns="http://www.w3.org/2000/svg">
<path d="M22.5 39.375C31.8198 39.375 39.375 31.8198 39.375 22.5C39.375 13.1802 31.8198 5.625 22.5 5.625C13.1802 5.625 5.625 13.1802 5.625 22.5C5.625 31.8198 13.1802 39.375 22.5 39.375Z" stroke="black" stroke-width="2" stroke-linecap="round" stroke-linejoin="round"/>
<path d="M22.5 24.375C25.6066 24.375 28.125 21.8566 28.125 18.75C28.125 15.6434 25.6066 13.125 22.5 13.125C19.3934 13.125 16.875 15.6434 16.875 18.75C16.875 21.8566 19.3934 24.375 22.5 24.375Z" stroke="black" stroke-width="2" stroke-linecap="round" stroke-linejoin="round"/>
<path d="M11.565 35.3419C12.0291 33.7973 12.9787 32.4435 14.273 31.4812C15.5672 30.5189 17.1372 29.9995 18.75 30H26.25C27.8649 29.9994 29.4368 30.5201 30.732 31.4846C32.0272 32.4491 32.9765 33.8058 33.4388 35.3531" stroke="black" stroke-width="2" stroke-linecap="round" stroke-linejoin="round"/>
</svg>
