<svg width="20" height="20" viewBox="0 0 20 20" fill="none" xmlns="http://www.w3.org/2000/svg">
<path d="M5.83331 5.83333H4.99998C4.55795 5.83333 4.13403 6.00893 3.82147 6.32149C3.50891 6.63405 3.33331 7.05797 3.33331 7.5V15C3.33331 15.442 3.50891 15.866 3.82147 16.1785C4.13403 16.4911 4.55795 16.6667 4.99998 16.6667H12.5C12.942 16.6667 13.3659 16.4911 13.6785 16.1785C13.9911 15.866 14.1666 15.442 14.1666 15V14.1667" stroke="#23A163" stroke-width="2" stroke-linecap="round" stroke-linejoin="round"/>
<path d="M16.9875 5.4875C17.3157 5.15929 17.5001 4.71415 17.5001 4.25C17.5001 3.78585 17.3157 3.3407 16.9875 3.0125C16.6593 2.68429 16.2142 2.49991 15.75 2.49991C15.2858 2.49991 14.8407 2.68429 14.5125 3.0125L7.5 10V12.5H10L16.9875 5.4875V5.4875Z" stroke="#23A163" stroke-width="2" stroke-linecap="round" stroke-linejoin="round"/>
<path d="M13.3333 4.16667L15.8333 6.66667" stroke="#23A163" stroke-width="2" stroke-linecap="round" stroke-linejoin="round"/>
</svg>
